<?xml version="1.0" encoding="utf-8"?>
<!DOCTYPE svg PUBLIC "-//W3C//DTD SVG 20010904//EN" "http://www.w3.org/TR/2001/REC-SVG-20010904/DTD/svg10.dtd">
<svg version="1.0" xmlns="http://www.w3.org/2000/svg" width="1634pt" height="642pt" viewBox="0 0 1634 642" style="" preserveAspectRatio="xMidYMid meet">
<g fill="#06A0D8FE" stroke="#06A0D8FE">
<path d="M 1282.583 292.250 C 1282.103 301.028 1282.380 339.837 1282.882 334.162 C 1282.971 333.152 1284.042 332.996 1287.250 333.525 C 1289.588 333.911 1291.950 334.557 1292.500 334.960 C 1294.310 336.290 1303.531 338.906 1307.301 339.160 C 1310.385 339.367 1311.000 339.779 1311.000 341.637 C 1311.000 342.970 1311.786 344.115 1312.956 344.486 C 1315.884 345.415 1322.000 343.997 1322.000 342.389 C 1322.000 341.560 1323.048 341.000 1324.596 341.000 C 1327.549 341.000 1339.029 337.826 1337.500 337.432 C 1336.950 337.291 1335.263 336.902 1333.750 336.568 C 1331.687 336.113 1331.000 335.365 1331.000 333.575 C 1331.000 331.601 1331.390 331.283 1333.250 331.741 C 1334.555 332.063 1335.150 331.918 1334.667 331.398 C 1334.185 330.879 1335.452 330.481 1337.667 330.456 C 1339.775 330.431 1341.872 330.881 1342.326 331.456 C 1342.885 332.162 1343.317 332.093 1343.662 331.244 C 1343.942 330.553 1344.548 330.221 1345.009 330.506 C 1346.016 331.128 1350.000 325.772 1350.000 323.796 C 1350.000 323.028 1350.546 321.854 1351.213 321.187 C 1352.018 320.382 1352.347 317.036 1352.192 311.237 C 1351.899 300.266 1349.155 294.175 1341.915 288.418 C 1333.448 281.686 1330.487 281.089 1305.349 281.042 L 1283.197 281.000 1282.583 292.250 M 1330.233 296.512 C 1339.392 302.736 1341.692 314.596 1335.066 321.432 C 1332.058 324.536 1332.000 324.723 1334.177 324.307 C 1336.696 323.825 1342.000 325.465 1341.999 326.725 C 1341.999 327.417 1340.087 327.492 1332.191 327.111 C 1330.921 327.050 1330.157 326.555 1330.493 326.011 C 1330.843 325.445 1330.443 325.276 1329.558 325.616 C 1328.707 325.943 1328.257 326.607 1328.558 327.093 C 1328.858 327.579 1328.360 327.692 1327.451 327.343 C 1326.542 326.994 1325.506 327.112 1325.149 327.604 C 1324.792 328.097 1318.088 328.364 1310.250 328.197 L 1296.000 327.895 1296.000 311.614 C 1296.000 302.660 1296.300 295.033 1296.667 294.667 C 1297.033 294.300 1303.904 294.000 1311.935 294.000 C 1325.880 294.000 1326.702 294.113 1330.233 296.512 "/></g>
<g fill="#06A0D8FE" stroke="#06A0D8FE">
<path d="M 470.650 280.684 C 470.292 281.041 470.000 290.250 470.000 301.148 L 470.000 320.962 472.750 321.581 C 480.887 323.414 483.025 324.216 483.936 325.780 C 484.636 326.980 484.948 322.414 484.970 310.681 L 485.000 293.862 501.070 294.181 L 517.139 294.500 521.499 299.118 C 528.336 306.357 528.788 314.640 522.738 321.771 C 520.533 324.370 520.330 324.827 522.069 323.281 C 524.344 321.257 524.803 321.185 527.273 322.467 C 528.763 323.239 531.448 324.013 533.241 324.186 C 535.690 324.422 536.523 324.997 536.591 326.500 C 536.811 331.323 540.400 319.999 540.796 313.235 C 541.301 304.579 539.210 297.053 535.182 293.035 C 529.880 287.744 523.216 283.323 518.898 282.229 C 514.052 281.002 471.689 279.645 470.650 280.684 "/></g>
<g fill="#087AB6FE" stroke="#087AB6FE">
<path d="M 470.000 335.392 L 470.000 349.822 474.316 351.911 C 476.689 353.060 479.839 354.000 481.316 354.000 C 483.638 354.000 484.000 354.409 484.000 357.031 C 484.000 359.976 483.064 360.874 479.440 361.406 C 478.496 361.545 477.195 362.380 476.550 363.263 C 475.905 364.145 474.167 365.171 472.688 365.542 C 467.649 366.807 469.985 368.000 477.500 368.000 L 485.000 368.000 485.000 355.000 L 485.000 342.000 488.750 341.889 C 494.222 341.728 497.303 342.082 499.000 343.068 C 500.240 343.788 500.175 343.944 498.625 343.970 C 493.994 344.045 500.003 355.005 508.409 361.814 C 510.659 363.637 512.391 364.662 512.259 364.090 C 512.107 363.436 514.967 363.071 519.995 363.104 C 526.523 363.147 528.502 362.779 530.890 361.078 C 534.161 358.749 535.000 358.533 535.000 360.021 C 535.000 360.583 533.884 361.551 532.521 362.172 C 530.068 363.290 530.063 363.320 532.021 365.018 C 534.873 367.491 534.517 367.982 529.750 368.150 C 526.548 368.263 526.208 368.405 528.371 368.728 C 529.950 368.963 532.312 368.887 533.621 368.559 C 535.820 368.007 536.000 367.472 536.000 361.481 L 536.000 355.000 532.750 354.984 C 522.539 354.935 509.519 348.377 510.197 343.624 C 510.430 341.989 511.306 341.434 514.000 341.214 C 515.925 341.057 518.793 340.417 520.374 339.791 C 523.058 338.730 523.128 338.567 521.433 337.327 C 520.435 336.597 518.466 335.961 517.059 335.914 L 514.500 335.828 517.245 335.002 C 518.755 334.547 520.175 334.474 520.400 334.838 C 520.625 335.202 520.852 335.275 520.905 335.000 C 520.957 334.725 522.238 334.411 523.750 334.301 C 529.810 333.863 531.417 333.216 534.206 330.095 C 537.699 326.186 537.420 324.606 533.164 324.186 C 531.414 324.013 528.796 323.257 527.347 322.505 C 524.917 321.244 524.426 321.367 521.044 324.084 C 515.824 328.279 513.148 328.764 498.213 328.218 C 486.654 327.795 484.799 327.494 483.946 325.900 C 483.056 324.236 480.975 323.434 472.750 321.581 L 470.000 320.962 470.000 335.392 "/></g>
</svg>
